<?xml version="1.0" encoding="utf-8"?>
<!-- Generator: Adobe Illustrator 16.0.4, SVG Export Plug-In . SVG Version: 6.00 Build 0)  -->
<!DOCTYPE svg PUBLIC "-//W3C//DTD SVG 1.1//EN" "http://www.w3.org/Graphics/SVG/1.1/DTD/svg11.dtd">
<svg version="1.1" xmlns="http://www.w3.org/2000/svg" xmlns:xlink="http://www.w3.org/1999/xlink" x="0px" y="0px"
	 width="595.275px" height="595.275px" viewBox="0 0 595.275 595.275" enable-background="new 0 0 595.275 595.275"
	 xml:space="preserve">
<g id="Layer_1">
	<rect display="none" fill="#E1E1E3" width="595.275" height="595.275"/>
	<rect x="0.022" display="none" fill="#E2373C" width="595.275" height="595.275"/>
</g>
<g id="Layer_2">
	<path fill="#E1E1E3" d="M216.315,276.598l160.097-4.005c0,0-20.755-3.845-20.243-16.6c-1.775-22.571-2.493-45.438-2.779-61.367
		c7.59-0.56,13.543-5.831,13.543-12.258c0-6.506-6.103-11.821-13.824-12.271c-2.348-42.531-49.762-39.708-51.396-39.789
		c-6.293-0.311-49.247-2.456-51.405,39.761c-0.125-0.002-0.248-0.016-0.374-0.016c-8.219,0-14.88,5.514-14.88,12.315
		c0,6.669,6.411,12.087,14.411,12.294c-0.621,16.084-1.586,38.08-2.739,54.184C245.236,262.051,216.315,276.598,216.315,276.598z"/>
	<circle fill="#FFFFFF" cx="290.159" cy="178.134" r="6.501"/>
	<path fill="#6F4242" d="M292.212,178.194c0,1.184-0.957,2.145-2.137,2.145c-1.178,0-2.143-0.961-2.143-2.145
		c0-1.182,0.965-2.129,2.143-2.129C291.255,176.065,292.212,177.013,292.212,178.194z"/>
	<circle fill="#FFFFFF" cx="311.769" cy="178.134" r="6.501"/>
	<circle fill="#FF9777" cx="301.838" cy="185.315" r="2.146"/>
	<path fill="#6F4242" d="M313.917,178.194c0,1.184-0.957,2.145-2.137,2.145c-1.178,0-2.143-0.961-2.143-2.145
		c0-1.182,0.965-2.129,2.143-2.129C312.96,176.065,313.917,177.012,313.917,178.194z"/>
	<path fill="#FFFFFF" d="M535.5,373.725c-23.535-40.409-65.365-87.282-97.342-109.848c2.529-19.949-4.963-32.967-4.963-32.967
		l-0.502,0.201c0.024-0.401,0.045-0.807,0.067-1.211c8.92,12.956,9.98,28.292,9.98,28.292c0.841-18.688-5.836-31.495-9.649-37.211
		c0.005-0.256,0.009-0.514,0.013-0.772c10.016,12.031,12.508,27.088,12.508,27.088c-0.892-17.854-8.109-29.713-12.532-35.38
		c-0.001-0.036-0.003-0.073-0.004-0.109c11.616,11.458,15.321,27.281,15.321,27.281c-2.189-18.841-11.036-30.47-15.665-35.387
		c-0.006-0.088-0.012-0.176-0.017-0.264c12.935,10.952,17.597,27.527,17.597,27.527c-2.652-16.452-10.193-27.112-15.27-32.654
		c10.168,9.807,14.564,22.121,14.564,22.121c-3.392-14.557-10.385-24.193-15.722-29.763c11.102,9.305,16.352,21.823,16.352,21.823
		c-4.955-17.053-14.616-26.903-20.245-31.438c-0.02-0.106-0.037-0.211-0.057-0.317c12.785,9.392,18.802,23.755,18.802,23.755
		c-4.698-16.169-13.625-25.86-19.337-30.687c12.382,8.73,18.701,21.805,18.701,21.805c-4.87-13.941-12.725-22.733-18.604-27.732
		c5.278,3.588,9.497,7.976,12.622,11.89c1.42,2.561,2.118,4.225,2.118,4.225c-0.246-0.846-0.505-1.671-0.773-2.481
		c3.512,4.699,5.3,8.331,5.3,8.331c-2.382-6.675-5.445-12.152-8.64-16.601c-2.067-4.279-4.392-7.908-6.714-10.944
		c7.512,7.264,11.455,14.787,11.455,14.787c-5.392-13.966-13.675-22.542-19.736-27.311c10.801,6.979,17.131,16.444,17.131,16.444
		c-6.785-13.188-15.83-20.813-22.353-24.937c12.971,6.356,21.054,17.192,21.054,17.192c-5.835-10.036-12.876-16.594-18.888-20.788
		c11.401,6.425,18.388,15.788,18.388,15.788c-7.493-12.888-16.976-20.045-23.707-23.813c12.148,3.882,20.66,11.24,20.66,11.24
		c-11.572-12.577-24.083-17.242-31.3-18.963c15.769,1.09,28.492,9.923,28.492,9.923c-10.665-9.366-21.388-13.232-28.934-14.817
		c13.769,0.781,24.826,6.857,24.826,6.857c-14.357-10.182-27.932-11.947-35.209-12.026c-0.09-0.084-0.177-0.166-0.268-0.25
		c15.514-1.216,29.149,5.327,29.149,5.327c-14.152-8.907-27.18-10.266-34.681-10.104c-0.048-0.039-0.095-0.077-0.144-0.116
		c15.994-1.657,30.324,5.22,30.324,5.22c-12.601-7.93-24.309-9.876-32.021-10.094c13.179-1.027,24.338,2.975,24.338,2.975
		c-11.708-5.781-22.263-7.055-29.873-6.892c12.83-1.536,23.814,1.752,23.814,1.752c-14.283-6.128-26.594-5.967-34.189-4.847
		c-0.297-0.167-0.599-0.332-0.899-0.498c14.94-3.392,29.089,0.845,29.089,0.845c-15.647-6.713-28.932-5.88-36.238-4.505
		c-0.031-0.015-0.063-0.03-0.095-0.045c15.389-3.931,30.333,0.55,30.333,0.55c-17.341-7.44-31.773-5.612-38.389-4.049
		c-0.834-0.331-1.682-0.655-2.538-0.975c15.422-3.973,30.427,0.524,30.427,0.524c-18.781-8.058-34.153-5.245-39.874-3.671
		c-0.171-0.05-0.343-0.1-0.514-0.15c14.913-6.382,30.832-3.924,30.832-3.924c-18.874-5.174-33.285-0.902-39.26,1.528
		c14.252-8.001,30.523-7.152,30.523-7.152c-14.694-2.469-26.255,0.25-33.455,3.021c12.396-6.992,25.602-7.628,25.602-7.628
		c-17.055-1.121-29.331,4.134-35.742,7.868c12.438-9.152,27.29-10.858,27.29-10.858c-16.447,0-28.085,5.6-34.422,9.717
		c12.649-9.906,28.422-11.717,28.422-11.717c-10.569,0-19.156,2.314-25.625,5.06c6.391-6.558,12.558-10.096,12.558-10.096
		c-7.554,3.249-13.447,7.309-17.98,11.343c4.313-8.408,9.427-13.772,9.427-13.772c-5.976,4.986-10.312,10.244-13.469,15.167
		c2.363-8.414,5.796-14.148,5.796-14.148c-4.549,5.942-7.566,11.796-9.566,17.125c-0.336-1.127-0.715-2.279-1.139-3.453
		c2.305-7.32,5.205-12.172,5.205-12.172c-2.496,3.261-4.531,6.495-6.191,9.632c-1.491-3.638-3.429-7.445-5.957-11.334
		c0,0,2.869,5.764,4.593,14.078c-0.325,0.69-0.634,1.374-0.924,2.05c-1.994-5.003-4.889-10.426-9.099-15.926
		c0,0,3.432,5.734,5.796,14.147c-3.157-4.924-7.494-10.181-13.469-15.167c0,0,5.113,5.364,9.427,13.772
		c-4.534-4.034-10.428-8.095-17.981-11.343c0,0,6.167,3.538,12.558,10.096c-6.469-2.746-15.056-5.06-25.625-5.06
		c0,0,15.772,1.811,28.422,11.717c-6.337-4.117-17.975-9.717-34.422-9.717c0,0,14.851,1.707,27.29,10.858
		c-6.411-3.733-18.687-8.989-35.742-7.868c0,0,13.206,0.637,25.602,7.628c-7.2-2.771-18.761-5.49-33.455-3.021
		c0,0,16.259-0.848,30.506,7.143c-0.001,0-0.002,0-0.004,0c-5.988-2.431-20.388-6.687-39.239-1.519c0,0,15.605-2.412,30.388,3.734
		c-0.216,0.062-0.429,0.125-0.644,0.188c-6.125-1.588-21.111-3.979-39.3,3.824c0,0,14.581-4.368,29.769-0.687
		c-0.869,0.321-1.728,0.647-2.573,0.98c-6.896-1.517-20.935-2.984-37.695,4.207c0,0,14.479-4.336,29.608-0.724
		c-0.055,0.026-0.11,0.051-0.165,0.078c-7.45-1.282-20.343-1.832-35.443,4.646c0,0,13.662-4.097,28.312-1.021
		c-0.336,0.184-0.676,0.368-1.007,0.552c-7.648-1-19.561-0.928-33.305,4.968c0,0,10.984-3.288,23.814-1.752
		c-7.609-0.163-18.165,1.111-29.873,6.892c0,0,11.159-4.002,24.338-2.975c-7.712,0.218-19.42,2.164-32.021,10.094
		c0,0,13.748-6.6,29.342-5.313c-0.082,0.066-0.162,0.132-0.244,0.198c-7.635-0.007-20.104,1.624-33.598,10.116
		c0,0,13.044-6.264,28.132-5.4c-0.128,0.118-0.25,0.232-0.375,0.349c-7.497,0.25-20.437,2.322-34.084,12.001
		c0,0,11.058-6.076,24.826-6.857c-7.546,1.585-18.269,5.451-28.934,14.817c0,0,12.724-8.833,28.492-9.923
		c-7.216,1.721-19.728,6.387-31.3,18.963c0,0,8.512-7.358,20.661-11.24c-6.732,3.768-16.215,10.925-23.708,23.813
		c0,0,6.986-9.362,18.388-15.788c-6.011,4.193-13.053,10.752-18.888,20.788c0,0,8.083-10.835,21.053-17.191
		c-6.522,4.124-15.566,11.75-22.351,24.936c0,0,6.33-9.464,17.13-16.443c-6.062,4.77-14.345,13.345-19.735,27.311
		c0,0,3.942-7.522,11.454-14.786c-2.321,3.036-4.645,6.664-6.713,10.942c-3.194,4.449-6.258,9.926-8.64,16.602
		c0,0,1.789-3.633,5.3-8.332c-0.268,0.811-0.527,1.636-0.773,2.482c0,0,0.699-1.665,2.119-4.226
		c3.125-3.914,7.344-8.302,12.622-11.89c-5.88,4.999-13.735,13.792-18.605,27.733c0,0,6.295-13.027,18.63-21.757
		c-0.001,0.005-0.002,0.01-0.004,0.016c-5.714,4.848-14.584,14.524-19.262,30.623c0,0,5.653-13.482,17.633-22.864
		c-0.025,0.138-0.05,0.276-0.075,0.415c-5.72,4.904-14.436,14.541-19.058,30.449c0,0,5.25-12.518,16.351-21.823
		c-5.336,5.57-12.33,15.206-15.721,29.763c0,0,4.397-12.314,14.564-22.12c-5.076,5.542-12.617,16.202-15.269,32.653
		c0,0,4.369-15.533,16.382-26.461c-0.013,0.188-0.024,0.375-0.036,0.563c-4.819,5.536-12.423,16.746-14.431,34.021
		c0,0,3.436-14.672,14.061-25.99c-0.005,0.174-0.012,0.35-0.017,0.524c-4.415,6.176-10.449,17.449-11.259,33.674
		c0,0,2.274-13.718,11.19-25.429c0.003,0.403,0.008,0.805,0.014,1.206c-3.846,6.449-9.083,18.436-8.333,35.117
		c0,0,0.955-13.723,8.607-26.173c0.011,0.24,0.024,0.479,0.036,0.718c-1.864,4.132-5.829,15.029-4.19,30.009
		c-0.272,0.206-0.536,0.406-0.811,0.613C140.5,276.725,89.846,326.801,66.5,367.725c-54.001,94.661-59,169-62,227.551h586
		C590.5,595.275,588.5,464.725,535.5,373.725z M264.887,193.061c-8.051-37.114,28.402-35.688,36.613-36.336
		c8.211,0.648,44.566-0.778,36.515,36.336c0,0-6.714,29.252-36.483,35.678l0.014,0.009h-0.19l0.017-0.009
		C271.601,222.312,264.887,193.061,264.887,193.061z M430.652,251.343c0.029-0.213,0.059-0.43,0.088-0.644
		c0.893,3.095,1.462,6.133,1.818,8.968c-0.071-0.055-0.143-0.109-0.215-0.163C431.916,256.288,431.286,253.54,430.652,251.343z
		 M434.087,247.318c1.731,5.572,2.405,11.022,2.6,15.475c-0.595-0.449-1.184-0.895-1.769-1.337
		C435.205,256.088,434.795,251.329,434.087,247.318z M301.41,77.004c-0.055,0-0.11-0.001-0.165-0.001
		c0.036-0.171,0.072-0.341,0.11-0.511C301.375,76.662,301.392,76.834,301.41,77.004z M170.779,244.757
		c0.016,0.172,0.033,0.343,0.05,0.515c-0.947,3.818-1.755,8.881-1.698,14.885c-0.577,0.438-1.16,0.88-1.748,1.324
		C167.691,256.581,168.592,250.661,170.779,244.757z"/>
	<path fill="#864C44" d="M301.497,209.896c-19.057-0.153-21.315-17.717-21.315-17.717c1.851,18.178,18.933,19.561,21.315,19.524
		c2.383,0.036,19.466-1.347,21.315-19.524C322.812,192.18,320.555,209.743,301.497,209.896z"/>
	<path fill="#E1E1E3" d="M501.094,595.275h5.839C504.965,521.072,498.331,483,498.331,483
		C500.636,526.791,501.156,566.396,501.094,595.275z"/>
	<path fill="#E1E1E3" d="M96.242,595.275h-5.839C92.371,521.072,99.005,483,99.005,483C96.7,526.791,96.18,566.396,96.242,595.275z"
		/>
	<g id="Layer_5">
		<path d="M332.729,166.445l-1.639,1.273l2.168,0.352l1.438-1.156L332.729,166.445z M328.842,168.16
			c-2.585-0.587-5.594-0.587-9.029,0c-3.433,0.586-6.456,1.523-9.064,2.81c-2.611,1.285-3.919,2.954-3.925,5.001
			c-0.006,1.736,0.606,3.586,1.836,5.554c0.538,0.924,1.631,1.848,3.282,2.772c1.652,0.925,4.389,1.17,8.209,0.741
			c2.654-0.613,4.818-1.658,6.492-3.139c1.68-1.486,3.111-3.999,4.299-7.539C332.132,170.813,331.434,168.747,328.842,168.16z
			 M303.979,170.792c4.665-2.235,9.612-3.902,14.841-5.002c5.495-0.875,10.989-1.217,16.484-1.031
			c2.104,0.476,2.521,1.673,1.246,3.597l-0.31,0.365c-0.362,0.362-0.761,0.659-1.199,0.89c-0.355,0.362-0.656,0.999-0.898,1.911
			c-0.844,3.896-2.454,7.229-4.833,10.002c-1.643,1.973-3.905,3.483-6.79,4.533c-0.911,0.318-1.764,0.565-2.558,0.739
			c-0.792,0.169-2.296,0.176-4.514,0.02c-4.901-0.569-7.982-2.363-9.243-5.386c-1.255-3.021-1.609-5.114-1.06-6.275
			c0.201-0.786-0.267-1.13-1.403-1.029c-1.455,0.227-2.904,0.227-4.348,0c-1.136-0.103-1.604,0.24-1.403,1.029
			c0.551,1.159,0.195,3.251-1.063,6.275c-1.26,3.025-4.339,4.82-9.239,5.386c-2.219,0.153-3.723,0.145-4.514-0.023
			c-0.791-0.168-1.644-0.415-2.556-0.735c-2.883-1.048-5.147-2.559-6.791-4.533c-2.378-2.771-3.989-6.104-4.833-10.002
			c-0.243-0.912-0.544-1.549-0.903-1.911c-0.436-0.231-0.834-0.527-1.195-0.89l-0.31-0.365c-1.273-1.925-0.858-3.124,1.247-3.597
			c5.493-0.189,10.989,0.155,16.483,1.031c5.282,1.112,10.277,2.799,14.985,5.062c0.795,0.151,1.576,0.23,2.342,0.239
			c0.657,0.009,1.395-0.07,2.205-0.239C303.894,170.832,303.936,170.811,303.979,170.792z M272.048,167.719l-1.639-1.273
			l-1.967,0.468l1.447,1.166L272.048,167.719z M283.325,168.16c-3.432-0.588-6.443-0.588-9.033,0c-2.591,0.59-3.289,2.656-2.098,6.2
			c1.191,3.543,2.623,6.055,4.298,7.534c1.676,1.482,3.841,2.529,6.495,3.144c3.819,0.431,6.566,0.194,8.242-0.708
			c1.678-0.902,2.814-1.837,3.409-2.805c1.122-1.966,1.682-3.818,1.677-5.554c-0.006-2.049-1.314-3.716-3.924-5.001
			C289.779,169.683,286.757,168.747,283.325,168.16z"/>
	</g>
</g>
</svg>
